<svg t="1668568576313" class="icon" viewBox="0 0 1024 1024" version="1.1" xmlns="http://www.w3.org/2000/svg"
     p-id="11901" width="200" height="200">
    <path d="M638.6 519.5c0 61.6-12.9 116.4-38.6 164.6-25.8 48.1-62.5 85.7-110.1 112.8-47.7 27.1-102.3 40.6-163.9 40.6-44.1 0-86.3-8.6-126.6-25.8-40.3-17.2-74.9-40.3-103.9-69.3s-52.1-63.7-69.3-103.9C8.9 598.3 0.4 556.1 0.4 512c0-44.1 8.6-86.3 25.8-126.6 17.2-40.3 40.3-74.9 69.3-103.9s63.7-52.1 103.9-69.3c40.3-17.2 82.5-25.8 126.6-25.8 84.7 0 157.4 28.4 218.1 85.3l-88.4 84.8c-34.6-33.5-77.9-50.2-129.7-50.2-36.4 0-70.1 9.2-101 27.5-30.9 18.4-55.4 43.3-73.5 74.8s-27.1 66-27.1 103.3 9 71.7 27.1 103.3c18.1 31.5 42.6 56.5 73.5 74.8 30.9 18.4 64.6 27.5 101 27.5 24.6 0 47.1-3.4 67.7-10.2 20.6-6.8 37.5-15.3 50.9-25.5 13.3-10.2 24.9-21.8 34.9-34.9 9.9-13 17.2-25.3 21.8-36.9 4.6-11.5 7.8-22.5 9.5-32.9H325.9V465.4h307.3c3.6 18.6 5.4 36.7 5.4 54.1z m292.2-54.1v-92.8h-93.3v92.8h-92.8v93.3h92.8v92.8h93.3v-92.8h92.8v-93.3h-92.8z"
          p-id="11902" fill="#1296db"></path>
</svg>
